# xmcd
#
# Track frame offsets:
#	150
#	17048
#	33466
#	53852
#	67750
#
# Disc length: 1198
#
# Revision: 4
# Processed by: cddbd v1.5.1PL0 Copyright (c) Steve Scherf et al.
# Submitted via: EasyCDDAExtractor 5.0.7
# Normalized: r3:DSETVAR1
#
DISCID=3704ac05
DTITLE=Various Artist - Hang On In There Baby (German Release)
DYEAR=1998
DGENRE=Pop
TTITLE0=Gary Barlow Featuring Rosie Gaines - Hang On In There Baby(Hang On In There Baby German CD Single Version)
TTITLE1=Gary Barlow Featuring Rosie Gaines - Hang On In There Baby(Album Version)
TTITLE2=Gary Barlow - My Committment(Soul Shock Mix)
TTITLE3=Gary Barlow - Hard To Handle(Live)
TTITLE4=Gary Barlow - A Million Love Songs(Live)
EXTD=
EXTT0=
EXTT1=
EXTT2=
EXTT3=
EXTT4=
PLAYORDER=
